<svg width="577" height="577" viewBox="0 0 577 577" fill="none" xmlns="http://www.w3.org/2000/svg">
<circle cx="288.5" cy="288.5" r="288.5" fill="#5B1717"/>
<path d="M220.637 303.678L261.275 204.383L300.003 303.678H220.637ZM278.654 109H275.088C274.16 120.723 258.437 155.749 255.594 161.945L163.939 373.19C155.481 389.223 141.801 395.959 130.566 395.959H127V400H211.98V396.027H208.541C198.3 396.027 186.872 386.798 193.348 370.635L213.631 320.65H306.671L326.231 370.635C332.249 386.798 321.147 395.959 310.906 395.959H307.4V400H433.747V395.959H430.38C418.747 395.959 405.133 389.088 396.543 372.521L278.654 109Z" fill="#FEFEFE"/>
</svg>
