<svg width="57" height="52" viewBox="0 0 57 52" fill="none" xmlns="http://www.w3.org/2000/svg">
<path d="M56.2245 37.1367C55.3961 33.1511 54.5853 29.1825 53.757 25.1969C53.6865 24.8547 53.6512 24.5639 53.1401 24.581C48.8924 24.5982 44.6447 24.5982 40.3794 24.5982C40.2913 24.5982 40.2032 24.6153 40.0269 24.6324C38.9165 30.0549 37.7885 35.4774 36.6605 41.0026C39.5863 41.0026 42.4592 41.0026 45.4026 41.0026C45.5612 43.0724 45.0325 44.9027 43.6929 46.4252C41.5955 48.8029 38.9165 49.7779 35.7616 48.9739C32.5891 48.17 30.7032 46.1002 30.051 42.9869C29.9453 42.4908 29.9453 41.9605 29.9453 41.4645C29.9453 31.526 29.9453 21.5875 29.9453 11.632C29.9453 11.4267 29.9629 11.2214 29.9805 10.9648C35.9202 11.0846 39.692 8.45027 41.2078 2.73693H45.4202V0H11.615V2.73693H15.8275C17.3432 8.45027 21.115 11.0846 27.0547 10.9648C27.0724 11.2214 27.09 11.4267 27.09 11.632C27.09 21.5704 27.09 31.5089 27.09 41.4645C27.09 41.9777 27.09 42.4908 26.9842 42.9869C26.3321 46.1002 24.4286 48.17 21.2737 48.9739C18.1187 49.7608 15.4397 48.8029 13.3423 46.4252C12.0028 44.9027 11.4917 43.0895 11.6327 41.0026C14.5761 41.0026 17.4314 41.0026 20.3748 41.0026C19.2468 35.4774 18.1187 30.0549 17.0083 24.6324C16.8321 24.6153 16.744 24.5982 16.6558 24.5982C12.4082 24.5982 8.16048 24.5982 3.89518 24.581C3.36642 24.581 3.34879 24.8547 3.27829 25.1969C2.46753 29.1825 1.63915 33.1511 0.810761 37.1367C0.528757 38.4025 0.282004 39.6684 0 41.0368C2.96104 41.0368 5.83395 41.0368 8.70687 41.0368C8.86549 46.3054 11.2625 50.0858 16.4972 51.5398C21.538 52.9425 25.5213 51.0608 28.5 46.9554C31.4787 51.0608 35.462 52.9425 40.5028 51.5398C45.7375 50.0858 48.1345 46.3225 48.2931 41.0368C51.166 41.0368 54.039 41.0368 57 41.0368C56.7356 39.6684 56.4889 38.4025 56.2245 37.1367Z" fill="#95575A"/>
</svg>
