<svg width="52" height="52" viewBox="0 0 52 52" fill="none" xmlns="http://www.w3.org/2000/svg">
<path d="M39.7112 48.9531H36.6643V52H39.7112V48.9531Z" fill="#95575A"/>
<path d="M3.04712 48.9531H0.000244141V52H3.04712V48.9531Z" fill="#95575A"/>
<path d="M33.6174 22.5469V39.8125H6.09399V22.5469H0.000244141V45.9062H39.7112V22.5469H33.6174Z" fill="#95575A"/>
<path d="M27.5237 29.6562H12.1877C10.5077 29.6562 9.14087 31.0231 9.14087 32.7031V36.7656H30.5706V32.7031C30.5706 31.0231 29.2037 29.6562 27.5237 29.6562Z" fill="#95575A"/>
<path d="M9.14087 13.4062V27.4292C10.038 26.9089 11.0782 26.6094 12.1877 26.6094H27.5237C28.6333 26.6094 29.6735 26.9089 30.5706 27.4292V13.4062H9.14087Z" fill="#95575A"/>
<path d="M45.8049 19.5H42.7581V52H45.8049V19.5Z" fill="#95575A"/>
<path d="M50.7567 0H37.8063L36.5627 16.4531H52.0002L50.7567 0Z" fill="#95575A"/>
</svg>
