<svg width="61" height="61" viewBox="0 0 61 61" fill="none" xmlns="http://www.w3.org/2000/svg">
<path d="M33.7494 29.2409C34.4521 28.8815 35.235 28.6915 36.0472 28.6915C37.3932 28.6915 38.6586 29.2141 39.6126 30.163L41.6661 28.1097C46.7479 29.891 52.6254 28.7506 56.688 24.6883C60.1062 21.2701 61.4543 16.567 60.7347 12.1339C60.6554 11.6457 60.3097 11.243 59.8392 11.0911C59.3687 10.939 58.8522 11.0626 58.5026 11.4124L55.4535 14.4615C52.9705 16.9445 48.9444 16.9445 46.4613 14.4615C43.9781 11.9784 43.9781 7.95232 46.4613 5.46927L49.5104 2.4202C49.8602 2.07038 49.9849 1.55388 49.8325 1.08316C49.6804 0.612231 49.2771 0.26741 48.7887 0.188124C44.3558 -0.531484 39.6525 0.816585 36.2345 4.23483C32.1116 8.35769 31.002 14.3493 32.8982 19.4821L28.4445 23.9358L33.7494 29.2409Z" fill="#95575A"/>
<path d="M25.6335 37.3114L20.3509 32.0288L1.87894 50.5006C-0.522949 52.9024 -0.522949 56.7966 1.87894 59.1985C4.28082 61.6004 8.17499 61.6004 10.5769 59.1985L26.5009 43.2747C24.8947 41.6601 24.6053 39.2224 25.6335 37.3114Z" fill="#95575A"/>
<path d="M37.4153 32.3797C37.0376 32.002 36.5423 31.813 36.0472 31.813C35.5521 31.813 35.0569 32.002 34.6792 32.3797L33.5765 33.4824L13.9335 13.8395L14.8517 12.9213C15.6882 12.085 15.5844 10.6976 14.6309 9.99545L6.61653 4.09313C5.84635 3.52606 4.77756 3.60659 4.10123 4.28292L0.698389 7.68597C0.0220658 8.36229 -0.0584687 9.4313 0.508602 10.2013L6.41072 18.2156C7.11285 19.1689 8.49942 19.2738 9.3366 18.4364L10.2547 17.518L29.8977 37.161L28.7173 38.3413C27.9617 39.0969 27.9617 40.3218 28.7173 41.0774L46.8384 59.1985C49.2403 61.6004 53.1345 61.6004 55.5364 59.1985C57.9382 56.7966 57.9382 52.9025 55.5364 50.5006L37.4153 32.3797Z" fill="#95575A"/>
</svg>
