<svg width="42" height="65" viewBox="0 0 42 65" fill="none" xmlns="http://www.w3.org/2000/svg">
<path d="M21.4309 0.791968C21.4309 0.581925 21.3474 0.380485 21.1989 0.231962C21.0504 0.0834393 20.8489 0 20.6389 0C20.4288 0 20.2274 0.0834393 20.0789 0.231962C19.9304 0.380485 19.8469 0.581925 19.8469 0.791968V17.4468H21.4309V0.791968Z" fill="#95575A"/>
<path d="M20.6389 58.0127C20.4288 58.0127 20.2274 58.0961 20.0789 58.2447C19.9304 58.3932 19.8469 58.5946 19.8469 58.8047V64.1494C19.8469 64.3594 19.9304 64.5609 20.0789 64.7094C20.2274 64.8579 20.4288 64.9414 20.6389 64.9414C20.8489 64.9414 21.0504 64.8579 21.1989 64.7094C21.3474 64.5609 21.4309 64.3594 21.4309 64.1494V58.8047C21.4309 58.5946 21.3474 58.3932 21.1989 58.2447C21.0504 58.0961 20.8489 58.0127 20.6389 58.0127Z" fill="#95575A"/>
<path d="M28.0184 55.644C27.8712 55.4942 27.6705 55.4089 27.4604 55.4071C27.2504 55.4052 27.0482 55.4869 26.8984 55.6341C26.7485 55.7813 26.6633 55.982 26.6614 56.192C26.6595 56.4021 26.7412 56.6043 26.8884 56.7541L30.6297 60.5623C30.7769 60.7121 30.9776 60.7974 31.1876 60.7992C31.3977 60.8011 31.5998 60.7195 31.7497 60.5722C31.8995 60.425 31.9848 60.2243 31.9866 60.0143C31.9885 59.8042 31.9069 59.6021 31.7597 59.4522L28.0184 55.644Z" fill="#95575A"/>
<path d="M13.2593 55.644L9.51803 59.4522C9.37083 59.6021 9.28918 59.8042 9.29105 60.0143C9.29292 60.2243 9.37815 60.425 9.528 60.5722C9.67785 60.7195 9.88003 60.8011 10.0901 60.7992C10.3001 60.7974 10.5008 60.7121 10.648 60.5623L14.3893 56.7541C14.5365 56.6043 14.6182 56.4021 14.6163 56.192C14.6144 55.982 14.5292 55.7813 14.3793 55.6341C14.2295 55.4869 14.0273 55.4052 13.8172 55.4071C13.6072 55.4089 13.4065 55.4942 13.2593 55.644Z" fill="#95575A"/>
<path d="M20.6388 18.2388C20.0592 18.2399 19.4963 18.4331 19.0382 18.7882C18.5801 19.1433 18.2527 19.6403 18.1072 20.2013H23.1705C23.025 19.6403 22.6976 19.1433 22.2395 18.7882C21.7814 18.4331 21.2185 18.2399 20.6388 18.2388Z" fill="#95575A"/>
<path d="M23.257 23.2931V21.7852H18.0208V23.2931C19.7601 23.0867 21.5177 23.0867 23.257 23.2931Z" fill="#95575A"/>
<path d="M20.6388 24.7225C9.5151 24.7225 0.417235 33.5609 0 44.5843H41.2776C40.8604 33.5605 31.7625 24.7225 20.6388 24.7225ZM12.4078 31.2348C10.1567 32.8096 8.24177 34.817 6.77463 37.1397C6.66231 37.3172 6.48407 37.4428 6.27914 37.4889C6.0742 37.535 5.85935 37.4978 5.68184 37.3854C5.50434 37.2731 5.37873 37.0949 5.33263 36.89C5.28654 36.685 5.32375 36.4702 5.43607 36.2927C7.01493 33.7929 9.0757 31.6326 11.4982 29.9376C11.6702 29.8182 11.8825 29.7717 12.0886 29.8084C12.2948 29.8451 12.4781 29.9619 12.5983 30.1333C12.7186 30.3048 12.766 30.5168 12.7303 30.7232C12.6946 30.9295 12.5786 31.1133 12.4078 31.2344V31.2348Z" fill="#95575A"/>
<path d="M15.0171 46.7129C15.0171 47.4248 15.1573 48.1298 15.4298 48.7875C15.7022 49.4452 16.1015 50.0429 16.6049 50.5463C17.1084 51.0497 17.706 51.449 18.3637 51.7215C19.0215 51.9939 19.7264 52.1342 20.4384 52.1342C21.1503 52.1342 21.8553 51.9939 22.513 51.7215C23.1708 51.449 23.7684 51.0497 24.2718 50.5463C24.7752 50.0429 25.1745 49.4452 25.447 48.7875C25.7194 48.1298 25.8597 47.4248 25.8597 46.7129V46.1685H15.0171V46.7129Z" fill="#95575A"/>
</svg>
