<svg xmlns="http://www.w3.org/2000/svg" xmlns:xlink="http://www.w3.org/1999/xlink"><defs>
<clipPath id="clip0">
<rect width="71" height="71" fill="white"/>
</clipPath>
</defs><symbol id="icon-arrow" viewBox="0 0 15 15">
<path d="M2 7.65686L7.65685 13.3137L13.3137 7.65686" stroke="#562F2F" stroke-width="2" stroke-linecap="round"/>
</symbol><symbol id="icon-back" viewBox="0 0 55 55">
<path d="M27.5 11.4585C26.2327 11.4585 25.2085 12.4848 25.2085 13.75V27.5C25.2085 28.7651 26.2327 29.7915 27.5 29.7915H41.25C42.5172 29.7915 43.5415 28.7651 43.5415 27.5C43.5415 26.2348 42.5172 25.2085 41.25 25.2085H29.7915V13.75C29.7915 12.4848 28.7672 11.4585 27.5 11.4585Z" fill="#95575A"/>
<path d="M27.5 0C20.2125 0 13.1541 2.91046 7.91103 7.77088L2.93354 2.79591C2.44049 2.30328 1.7028 2.15641 1.06121 2.42245C0.419197 2.68806 0 3.31623 0 4.01028V18.9062C0 19.855 0.769997 20.625 1.71875 20.625H16.6147C17.3113 20.625 17.9369 20.2058 18.2026 19.5638C18.4686 18.9222 18.3217 18.182 17.8291 17.6915L11.1719 11.0321C15.5602 7.01263 21.4248 4.58347 27.5 4.58347C40.1363 4.58347 50.4165 14.8637 50.4165 27.5C50.4165 40.1363 40.1363 50.4165 27.5 50.4165C21.3719 50.4165 15.6223 48.0289 11.3116 43.6976C10.4178 42.7992 8.96511 42.7967 8.07133 43.6905C7.17293 44.5843 7.16831 46.0349 8.0621 46.9333C13.2414 52.1353 20.1437 55 27.5 55C42.6641 55 55 42.6641 55 27.5C55 12.3359 42.6641 0 27.5 0Z" fill="#95575A"/>
</symbol><symbol id="icon-delivery" viewBox="0 0 72 49">
<path fill-rule="evenodd" clip-rule="evenodd" d="M51.3281 0.487675C57.5706 2.15348 59.9584 6.35115 62.9522 12.1287H51.3281V0.487675ZM14.8469 12.6139C16.0692 12.6139 16.9563 13.2923 16.9563 14.8779C16.9563 16.2152 16.0153 17.2998 14.853 17.3036H2.10938C0.944275 17.3036 0 18.3902 0 19.7294C0 21.0692 0.944275 22.1551 2.10938 22.1551H21.0938C22.2698 22.1551 23.2114 23.2404 23.2114 24.5809C23.2114 25.9207 22.2671 27.0066 21.102 27.0066H2.10938C0.944275 27.0066 0 28.0925 0 29.4323C0 30.7722 0.944275 31.8581 2.10938 31.8581H6.75V39.1353C6.75 40.4752 7.69427 41.5611 8.85938 41.5611H13.0995C13.8554 45.8427 17.1453 49 21.0234 49C24.9016 49 28.1915 45.8427 28.9473 41.5611H50.3652C51.121 45.8427 54.4109 49 58.2891 49C62.1672 49 65.4571 45.8427 66.213 41.5611H69.8906C71.0557 41.5611 72 40.4752 72 39.1353V24.5809C72 17.4635 65.4719 16.9909 65.4659 16.9802H49.2188C48.0536 16.9802 47.1094 15.8943 47.1094 14.5545V0H8.85938C7.69427 0 6.75 1.0859 6.75 2.42574V7.76238H4.21875C3.05365 7.76238 2.10938 8.84828 2.10938 10.1881C2.10938 11.528 3.05365 12.6139 4.21875 12.6139H14.8469ZM61.0236 36.5567C62.5336 38.2933 62.5336 41.11 61.0236 42.8466C58.5945 45.64 54.4219 43.6526 54.4219 39.7013C54.4219 35.7506 58.5945 33.7633 61.0236 36.5567ZM23.7579 36.5567C25.268 38.2933 25.268 41.11 23.7579 42.8466C21.3289 45.64 17.1562 43.6526 17.1562 39.7013C17.1562 35.7506 21.3289 33.7633 23.7579 36.5567Z" fill="#95575A"/>
</symbol><symbol id="icon-fb" viewBox="0 0 23 22">
<path d="M0.264893 0V21.9664H11.9633V13.4812H9.10359V10.0173H11.9633V7.10831C11.9633 4.99265 13.6784 3.27758 15.7941 3.27758H18.7837V6.39239H16.6445C15.9722 6.39239 15.4272 6.93739 15.4272 7.60964V10.0174H18.7299L18.2735 13.4813H15.4272V21.9664H22.2313V0H0.264893Z"/>
</symbol><symbol id="icon-furniture" viewBox="0 0 52 52">
<path d="M39.7112 48.9531H36.6643V52H39.7112V48.9531Z" fill="#95575A"/>
<path d="M3.04712 48.9531H0.000244141V52H3.04712V48.9531Z" fill="#95575A"/>
<path d="M33.6174 22.5469V39.8125H6.09399V22.5469H0.000244141V45.9062H39.7112V22.5469H33.6174Z" fill="#95575A"/>
<path d="M27.5237 29.6562H12.1877C10.5077 29.6562 9.14087 31.0231 9.14087 32.7031V36.7656H30.5706V32.7031C30.5706 31.0231 29.2037 29.6562 27.5237 29.6562Z" fill="#95575A"/>
<path d="M9.14087 13.4062V27.4292C10.038 26.9089 11.0782 26.6094 12.1877 26.6094H27.5237C28.6333 26.6094 29.6735 26.9089 30.5706 27.4292V13.4062H9.14087Z" fill="#95575A"/>
<path d="M45.8049 19.5H42.7581V52H45.8049V19.5Z" fill="#95575A"/>
<path d="M50.7567 0H37.8063L36.5627 16.4531H52.0002L50.7567 0Z" fill="#95575A"/>
</symbol><symbol id="icon-inst" viewBox="0 0 22 23">
<path fill-rule="evenodd" clip-rule="evenodd" d="M14.7502 5.52332H7.21604C6.01363 5.52332 5.03516 6.50172 5.03516 7.7042V15.2383C5.03516 16.441 6.01363 17.4194 7.21604 17.4194H14.7502C15.9528 17.4194 16.9313 16.441 16.9313 15.2383V7.7042C16.9313 6.50179 15.9528 5.52332 14.7502 5.52332ZM10.983 15.3874C8.82382 15.3874 7.06693 13.6305 7.06693 11.4711C7.06693 9.31197 8.82382 7.55509 10.983 7.55509C13.1424 7.55509 14.8993 9.31197 14.8993 11.4711C14.8993 13.6305 13.1424 15.3874 10.983 15.3874ZM15.0253 8.36488C14.5141 8.36488 14.0984 7.94921 14.0984 7.43831C14.0984 6.92735 14.5141 6.51168 15.0253 6.51168C15.5362 6.51168 15.9518 6.92735 15.9518 7.43831C15.9518 7.94927 15.5362 8.36488 15.0253 8.36488Z"/>
<path fill-rule="evenodd" clip-rule="evenodd" d="M10.9832 9.21008C9.73672 9.21008 8.72168 10.2246 8.72168 11.4711C8.72168 12.7181 9.73672 13.7329 10.9832 13.7329C12.2301 13.7329 13.2445 12.7181 13.2445 11.4711C13.2445 10.2246 12.2301 9.21008 10.9832 9.21008Z"/>
<path fill-rule="evenodd" clip-rule="evenodd" d="M0 0.488159V22.4545H21.9664V0.488159H0ZM18.586 15.2384C18.586 17.3537 16.8656 19.0741 14.7503 19.0741H7.21614C5.10103 19.0741 3.38041 17.3537 3.38041 15.2384V7.70429C3.38041 5.58919 5.10103 3.86857 7.21614 3.86857H14.7503C16.8656 3.86857 18.586 5.58919 18.586 7.70429V15.2384Z"/>
</symbol><symbol id="icon-lamp" viewBox="0 0 42 65">
<path d="M21.4309 0.791968C21.4309 0.581925 21.3474 0.380485 21.1989 0.231962C21.0504 0.0834393 20.8489 0 20.6389 0C20.4288 0 20.2274 0.0834393 20.0789 0.231962C19.9304 0.380485 19.8469 0.581925 19.8469 0.791968V17.4468H21.4309V0.791968Z" fill="#95575A"/>
<path d="M20.6389 58.0127C20.4288 58.0127 20.2274 58.0961 20.0789 58.2447C19.9304 58.3932 19.8469 58.5946 19.8469 58.8047V64.1494C19.8469 64.3594 19.9304 64.5609 20.0789 64.7094C20.2274 64.8579 20.4288 64.9414 20.6389 64.9414C20.8489 64.9414 21.0504 64.8579 21.1989 64.7094C21.3474 64.5609 21.4309 64.3594 21.4309 64.1494V58.8047C21.4309 58.5946 21.3474 58.3932 21.1989 58.2447C21.0504 58.0961 20.8489 58.0127 20.6389 58.0127Z" fill="#95575A"/>
<path d="M28.0184 55.644C27.8712 55.4942 27.6705 55.4089 27.4604 55.4071C27.2504 55.4052 27.0482 55.4869 26.8984 55.6341C26.7485 55.7813 26.6633 55.982 26.6614 56.192C26.6595 56.4021 26.7412 56.6043 26.8884 56.7541L30.6297 60.5623C30.7769 60.7121 30.9776 60.7974 31.1876 60.7992C31.3977 60.8011 31.5998 60.7195 31.7497 60.5722C31.8995 60.425 31.9848 60.2243 31.9866 60.0143C31.9885 59.8042 31.9069 59.6021 31.7597 59.4522L28.0184 55.644Z" fill="#95575A"/>
<path d="M13.2593 55.644L9.51803 59.4522C9.37083 59.6021 9.28918 59.8042 9.29105 60.0143C9.29292 60.2243 9.37815 60.425 9.528 60.5722C9.67785 60.7195 9.88003 60.8011 10.0901 60.7992C10.3001 60.7974 10.5008 60.7121 10.648 60.5623L14.3893 56.7541C14.5365 56.6043 14.6182 56.4021 14.6163 56.192C14.6144 55.982 14.5292 55.7813 14.3793 55.6341C14.2295 55.4869 14.0273 55.4052 13.8172 55.4071C13.6072 55.4089 13.4065 55.4942 13.2593 55.644Z" fill="#95575A"/>
<path d="M20.6388 18.2388C20.0592 18.2399 19.4963 18.4331 19.0382 18.7882C18.5801 19.1433 18.2527 19.6403 18.1072 20.2013H23.1705C23.025 19.6403 22.6976 19.1433 22.2395 18.7882C21.7814 18.4331 21.2185 18.2399 20.6388 18.2388Z" fill="#95575A"/>
<path d="M23.257 23.2931V21.7852H18.0208V23.2931C19.7601 23.0867 21.5177 23.0867 23.257 23.2931Z" fill="#95575A"/>
<path d="M20.6388 24.7225C9.5151 24.7225 0.417235 33.5609 0 44.5843H41.2776C40.8604 33.5605 31.7625 24.7225 20.6388 24.7225ZM12.4078 31.2348C10.1567 32.8096 8.24177 34.817 6.77463 37.1397C6.66231 37.3172 6.48407 37.4428 6.27914 37.4889C6.0742 37.535 5.85935 37.4978 5.68184 37.3854C5.50434 37.2731 5.37873 37.0949 5.33263 36.89C5.28654 36.685 5.32375 36.4702 5.43607 36.2927C7.01493 33.7929 9.0757 31.6326 11.4982 29.9376C11.6702 29.8182 11.8825 29.7717 12.0886 29.8084C12.2948 29.8451 12.4781 29.9619 12.5983 30.1333C12.7186 30.3048 12.766 30.5168 12.7303 30.7232C12.6946 30.9295 12.5786 31.1133 12.4078 31.2344V31.2348Z" fill="#95575A"/>
<path d="M15.0171 46.7129C15.0171 47.4248 15.1573 48.1298 15.4298 48.7875C15.7022 49.4452 16.1015 50.0429 16.6049 50.5463C17.1084 51.0497 17.706 51.449 18.3637 51.7215C19.0215 51.9939 19.7264 52.1342 20.4384 52.1342C21.1503 52.1342 21.8553 51.9939 22.513 51.7215C23.1708 51.449 23.7684 51.0497 24.2718 50.5463C24.7752 50.0429 25.1745 49.4452 25.447 48.7875C25.7194 48.1298 25.8597 47.4248 25.8597 46.7129V46.1685H15.0171V46.7129Z" fill="#95575A"/>
</symbol><symbol id="icon-lustra" viewBox="0 0 57 52">
<path d="M56.2245 37.1367C55.3961 33.1511 54.5853 29.1825 53.757 25.1969C53.6865 24.8547 53.6512 24.5639 53.1401 24.581C48.8924 24.5982 44.6447 24.5982 40.3794 24.5982C40.2913 24.5982 40.2032 24.6153 40.0269 24.6324C38.9165 30.0549 37.7885 35.4774 36.6605 41.0026C39.5863 41.0026 42.4592 41.0026 45.4026 41.0026C45.5612 43.0724 45.0325 44.9027 43.6929 46.4252C41.5955 48.8029 38.9165 49.7779 35.7616 48.9739C32.5891 48.17 30.7032 46.1002 30.051 42.9869C29.9453 42.4908 29.9453 41.9605 29.9453 41.4645C29.9453 31.526 29.9453 21.5875 29.9453 11.632C29.9453 11.4267 29.9629 11.2214 29.9805 10.9648C35.9202 11.0846 39.692 8.45027 41.2078 2.73693H45.4202V0H11.615V2.73693H15.8275C17.3432 8.45027 21.115 11.0846 27.0547 10.9648C27.0724 11.2214 27.09 11.4267 27.09 11.632C27.09 21.5704 27.09 31.5089 27.09 41.4645C27.09 41.9777 27.09 42.4908 26.9842 42.9869C26.3321 46.1002 24.4286 48.17 21.2737 48.9739C18.1187 49.7608 15.4397 48.8029 13.3423 46.4252C12.0028 44.9027 11.4917 43.0895 11.6327 41.0026C14.5761 41.0026 17.4314 41.0026 20.3748 41.0026C19.2468 35.4774 18.1187 30.0549 17.0083 24.6324C16.8321 24.6153 16.744 24.5982 16.6558 24.5982C12.4082 24.5982 8.16048 24.5982 3.89518 24.581C3.36642 24.581 3.34879 24.8547 3.27829 25.1969C2.46753 29.1825 1.63915 33.1511 0.810761 37.1367C0.528757 38.4025 0.282004 39.6684 0 41.0368C2.96104 41.0368 5.83395 41.0368 8.70687 41.0368C8.86549 46.3054 11.2625 50.0858 16.4972 51.5398C21.538 52.9425 25.5213 51.0608 28.5 46.9554C31.4787 51.0608 35.462 52.9425 40.5028 51.5398C45.7375 50.0858 48.1345 46.3225 48.2931 41.0368C51.166 41.0368 54.039 41.0368 57 41.0368C56.7356 39.6684 56.4889 38.4025 56.2245 37.1367Z" fill="#95575A"/>
</symbol><symbol id="icon-mail" viewBox="0 0 16 11">
<path d="M14.5938 0H1.4063C1.18983 0 0.987177 0.0465665 0.803833 0.12332L7.9688 6.39267L9.57471 5.04224C9.57471 5.04224 9.57483 5.04211 9.57486 5.04205C9.57489 5.042 9.57502 5.04194 9.57502 5.04194L15.1965 0.12343C15.0131 0.0466211 14.8103 0 14.5938 0Z" fill="#FBEDE6"/>
<path d="M15.8592 0.703613L10.5691 5.3322L15.859 9.96087C15.9467 9.80044 15.9999 9.62312 15.9999 9.43371V1.23058C15.9999 1.04128 15.9468 0.863984 15.8592 0.703613Z" fill="#FBEDE6"/>
<path d="M0.140937 0.703369C0.0532188 0.863795 0 1.04112 0 1.23053V9.43365C0 9.62296 0.0531562 9.80031 0.140812 9.96068L5.43091 5.33209L0.140937 0.703369Z" fill="#FBEDE6"/>
<path d="M9.90634 5.91216L8.30021 7.26275C8.20865 7.34287 8.08871 7.38293 7.96881 7.38293C7.8489 7.38293 7.72893 7.34287 7.6374 7.26275L6.09378 5.91211L0.803589 10.5407C0.986964 10.6175 1.18975 10.6642 1.40628 10.6642H14.5938C14.8102 10.6642 15.0129 10.6176 15.1962 10.5408L9.90634 5.91216Z" fill="#FBEDE6"/>
</symbol><symbol id="icon-ok" viewBox="0 0 23 22">
<path fill-rule="evenodd" clip-rule="evenodd" d="M0.710449 0H22.3333V21.6229H0.710449V0ZM6.68508 11.4221C6.26025 12.2572 6.7426 12.6564 7.84315 13.3384C8.77872 13.9164 10.0712 14.1278 10.9015 14.2123L7.62969 17.3594C6.67746 18.2722 8.21046 19.7365 9.16201 18.8432L11.738 16.3587L11.7858 16.4046C12.7547 17.3367 13.68 18.2269 14.3141 18.8467C15.2663 19.7435 16.7986 18.2916 15.8568 17.3629C15.8257 17.3333 15.1477 16.683 14.415 15.9804L14.4089 15.9745L14.4036 15.9694C13.4724 15.0763 12.4581 14.1036 12.5745 14.2158C13.4152 14.1312 14.6883 13.9074 15.6128 13.3419L15.6121 13.3412C16.7127 12.6557 17.1951 12.2572 16.7765 11.4221C16.5235 10.9481 15.8415 10.5517 14.9337 11.2371C14.9337 11.2371 13.7077 12.1762 11.7304 12.1762C9.75248 12.1762 8.52718 11.2371 8.52718 11.2371C7.61999 10.5482 6.93527 10.9481 6.68508 11.4221ZM10.9015 14.2123L10.9015 14.2123C10.8953 14.2182 10.7828 14.3264 10.9015 14.2123ZM16.1076 6.70728C16.1076 9.0262 14.1394 10.9099 11.729 10.9099C9.31788 10.9099 7.34964 9.0262 7.34964 6.70728C7.34964 4.37866 9.31788 2.49498 11.729 2.49498C14.1394 2.49498 16.1076 4.37866 16.1076 6.70728ZM13.8795 6.70728C13.8795 5.55822 12.9134 4.62885 11.729 4.62885C10.5439 4.62885 9.57777 5.55753 9.57846 6.70728C9.57846 7.84664 10.5446 8.77601 11.729 8.77601C12.9134 8.77601 13.8795 7.84664 13.8795 6.70728Z"/>
</symbol><symbol id="icon-pazl" viewBox="0 0 64 57">
<path d="M55.9436 40.9704L64 33.0002L55.9436 25.0296L57.2416 23.7454C59.4875 21.5235 59.4875 17.9083 57.2421 15.6864C56.154 14.6104 54.7073 14.0176 53.1687 14.0176C51.6306 14.0176 50.1839 14.6104 49.0963 15.6864L47.7983 16.9706L39.7419 9L37.3646 11.3524V15.0702C41.5699 16.0617 44.7068 19.8102 44.7068 24.2698C44.7068 28.7298 41.5699 32.4784 37.3646 33.4694V44.9974H30.3904L29 46.373L39.7419 57L47.7983 49.0294L48.917 50.1367C51.1629 52.3587 54.817 52.3587 57.0628 50.1367C59.3087 47.9148 59.3087 44.2996 57.0628 42.0777L55.9436 40.9704Z" fill="#95575A"/>
<path d="M33.7722 41V29.8519H35.3296C38.4565 29.8519 41 27.3238 41 24.2158C41 21.1082 38.4565 18.5801 35.3296 18.5801H33.7722V7.43205H22.5563V5.63614C22.5563 2.5281 20.0128 0 16.8858 0C13.7594 0 11.2159 2.5281 11.2159 5.63614V7.43205H0V18.5801H1.55789C4.3012 18.5801 6.59524 20.5263 7.11648 23.1028C7.34258 23.4169 7.47727 23.8006 7.47727 24.2158C7.47727 24.6309 7.34258 25.0147 7.11648 25.3293C6.59524 27.9052 4.3012 29.8519 1.55789 29.8519H0V41H11.2159V39.2036C11.2159 36.096 13.7594 33.568 16.8858 33.568C20.0128 33.568 22.5563 36.096 22.5563 39.2036V41H33.7722Z" fill="#95575A"/>
</symbol><symbol id="icon-phone" viewBox="0 0 11 12">
<path d="M10.9771 8.52392C10.946 8.43016 10.7481 8.29204 10.3834 8.10989C10.2846 8.05248 10.1438 7.97445 9.96166 7.87547C9.77934 7.77649 9.61386 7.68528 9.46551 7.60192C9.31685 7.51859 9.17759 7.43786 9.04746 7.35984C9.02666 7.34421 8.96156 7.2987 8.85217 7.223C8.74268 7.14753 8.65035 7.09151 8.57468 7.05498C8.49918 7.01866 8.4249 7.00038 8.35197 7.00038C8.24782 7.00038 8.11772 7.07465 7.96151 7.223C7.8053 7.37155 7.66201 7.5329 7.53186 7.70755C7.40168 7.88212 7.26361 8.04347 7.11792 8.19193C6.972 8.34045 6.85211 8.41464 6.75846 8.41464C6.71145 8.41464 6.65283 8.40153 6.58258 8.37567C6.51236 8.34965 6.45894 8.32734 6.42227 8.30936C6.38592 8.291 6.32356 8.25466 6.23494 8.19979C6.14617 8.14508 6.0968 8.11512 6.0864 8.10989C5.37282 7.71393 4.76083 7.26074 4.25031 6.75044C3.73996 6.23984 3.28672 5.6279 2.89087 4.91425C2.88567 4.90382 2.85564 4.85431 2.80099 4.76581C2.74626 4.67723 2.70978 4.6148 2.69156 4.57824C2.67333 4.54182 2.65119 4.4884 2.62519 4.4181C2.5992 4.34779 2.58614 4.28923 2.58614 4.24229C2.58614 4.14859 2.66039 4.02873 2.80885 3.88287C2.95728 3.73709 3.1188 3.599 3.29323 3.46887C3.4678 3.33874 3.62915 3.19545 3.77764 3.03925C3.92608 2.88296 4.00029 2.7528 4.00029 2.64865C4.00029 2.57577 3.98207 2.50147 3.94564 2.42597C3.90919 2.3503 3.8532 2.25797 3.77764 2.14853C3.70206 2.03914 3.65649 1.97409 3.64084 1.95316C3.56279 1.82303 3.48214 1.68371 3.3987 1.53525C3.31526 1.38681 3.22419 1.22136 3.12518 1.03907C3.02625 0.856866 2.94817 0.716176 2.89081 0.617219C2.70861 0.252673 2.5706 0.0546505 2.47681 0.0235076C2.44033 0.00788149 2.3856 0 2.31275 0C2.17203 0 1.98846 0.025998 1.7619 0.0781581C1.53525 0.130236 1.3569 0.184859 1.22667 0.242246C0.966222 0.351575 0.690178 0.669297 0.398453 1.1953C0.132809 1.68483 0 2.16935 0 2.64851C0 2.78904 0.00911297 2.92576 0.0273389 3.0587C0.0455649 3.19151 0.0781307 3.34129 0.125064 3.508C0.171915 3.67466 0.209708 3.79847 0.238278 3.87909C0.266876 3.95977 0.320268 4.10429 0.398426 4.31271C0.476474 4.52108 0.523408 4.64863 0.539034 4.69551C0.721321 5.206 0.937487 5.66173 1.18748 6.06284C1.59879 6.72954 2.1601 7.41854 2.87108 8.12957C3.58208 8.84054 4.27095 9.40183 4.9377 9.8133C5.33875 10.0633 5.79465 10.2794 6.30506 10.4618C6.35196 10.4774 6.47952 10.5242 6.6878 10.6025C6.89617 10.6806 7.04074 10.734 7.12142 10.7627C7.20212 10.7913 7.32596 10.8292 7.49248 10.8761C7.65936 10.923 7.809 10.9556 7.94181 10.974C8.0747 10.9919 8.21145 11.0012 8.352 11.0012C8.83113 11.0012 9.31568 10.8683 9.80529 10.6027C10.3312 10.3111 10.6489 10.035 10.7583 9.77436C10.8158 9.64426 10.8703 9.46586 10.9224 9.23922C10.9746 9.01268 11.0005 8.82913 11.0005 8.68844C11.0007 8.61529 10.9928 8.5607 10.9771 8.52392Z"/>
</symbol><symbol id="icon-pin" viewBox="0 0 11 16">
<path d="M9.38989 1.64129C8.35102 0.582939 6.96967 0 5.50056 0C4.03116 0 2.6501 0.582939 1.61122 1.64129C-0.311363 3.59961 -0.550287 7.28426 1.09379 9.51666L5.50056 16L9.90073 9.52572C11.5514 7.28426 11.3125 3.59961 9.38989 1.64129ZM5.55132 7.5972C4.44447 7.5972 3.54355 6.6794 3.54355 5.5518C3.54355 4.4242 4.44447 3.5064 5.55132 3.5064C6.65818 3.5064 7.55909 4.4242 7.55909 5.5518C7.55909 6.6794 6.65818 7.5972 5.55132 7.5972Z"/>
</symbol><symbol id="icon-search" viewBox="0 0 21 20">
<circle cx="8.5" cy="8.5" r="7.5" stroke="#A21418" stroke-width="2"/>
<line x1="14.4142" y1="14" x2="19" y2="18.5858" stroke="#A21418" stroke-width="2" stroke-linecap="round"/>
</symbol><symbol id="icon-sertificate" viewBox="0 0 71 71">
<g clip-path="url(#clip0)">
<path d="M63.1211 32.1353L62.2495 30.9441C61.2908 29.6368 61.2763 27.8646 62.2205 26.5427L63.0775 25.3371C64.3849 23.4923 63.7748 20.9067 61.7847 19.8317L60.4774 19.1345C59.0538 18.3646 58.2694 16.7813 58.5454 15.1834L58.7924 13.7163C59.17 11.4793 57.4995 9.4166 55.2335 9.32944L53.7518 9.27134C52.1395 9.19871 50.745 8.10926 50.2947 6.55498L49.8879 5.13143C49.2633 2.95253 46.8665 1.8195 44.7748 2.72012L43.4093 3.30116C41.9277 3.9403 40.1991 3.56262 39.1096 2.35697L38.1219 1.25299C36.6112 -0.432025 33.9529 -0.417499 32.4713 1.29657L31.498 2.41507C30.4376 3.63525 28.709 4.04198 27.2129 3.43189L25.8474 2.86538C23.7557 1.99382 21.3734 3.17042 20.7778 5.34932L20.3856 6.77287C19.9644 8.32715 18.5844 9.44565 16.972 9.54733L15.4904 9.63449C13.2243 9.76522 11.5829 11.857 12.0041 14.0794L12.2656 15.532C12.5561 17.1299 11.8008 18.7278 10.3918 19.5122L9.09894 20.2385C7.10888 21.3424 6.54237 23.9281 7.87876 25.7583L8.75032 26.9495C9.70903 28.2568 9.72356 30.029 8.77937 31.3508L7.92233 32.5565C6.615 34.4013 7.22509 36.9869 9.21515 38.0619L10.5225 38.7591C11.946 39.529 12.7304 41.1123 12.4544 42.7102L12.2075 44.1773C11.8298 46.4143 13.5003 48.477 15.7664 48.5641L17.248 48.6223C18.8604 48.6949 20.2549 49.7843 20.7052 51.3386L21.1119 52.7622C21.7366 54.9411 24.1333 56.0741 26.2251 55.1735L27.5905 54.5924C29.0722 53.9533 30.8008 54.331 31.8902 55.5366L32.878 56.6406C34.3887 58.3256 37.0469 58.3111 38.5286 56.597L39.5018 55.4785C40.5622 54.2583 42.2908 53.8516 43.787 54.4617L45.1524 55.0282C47.2442 55.8998 49.6265 54.7232 50.222 52.5443L50.6142 51.1207C51.0355 49.5664 52.4154 48.4479 54.0278 48.3463L55.5095 48.2591C57.7755 48.1284 59.417 46.0366 58.9957 43.8142L58.7342 42.3615C58.4437 40.7637 59.1991 39.1658 60.6081 38.3814L61.9009 37.6551C63.891 36.5657 64.4575 33.9655 63.1211 32.1353ZM35.4781 47.8233C25.063 47.8233 16.5944 39.3547 16.5944 28.9395C16.5944 18.5244 25.063 10.0557 35.4781 10.0557C45.8933 10.0557 54.3619 18.5244 54.3619 28.9395C54.3619 39.3547 45.8933 47.8233 35.4781 47.8233Z" fill="#95575A"/>
<path d="M55.2045 52.4571L54.5508 52.5007L54.2312 53.6628C53.287 57.1054 50.1349 59.5022 46.576 59.5022C45.5301 59.5022 44.5133 59.2989 43.5546 58.9067L42.4506 58.4418L42.102 58.8486L47.4911 68.6536C47.8107 69.2201 48.3627 69.6269 49.0018 69.7431L55.495 70.9487C56.5118 71.1376 57.5286 70.5856 57.9208 69.6123L60.3757 63.4824C60.6227 62.8723 60.5791 62.1895 60.2595 61.623L55.2045 52.4571Z" fill="#95575A"/>
<path d="M27.852 59.0083C26.8497 59.4441 25.8039 59.662 24.7144 59.662C21.1991 59.662 18.0615 57.3088 17.0883 53.9388L16.7542 52.7912L15.5921 52.7477L10.7114 61.6375C10.3918 62.2041 10.3482 62.8868 10.5951 63.4969L13.05 69.6268C13.4422 70.6001 14.4591 71.1521 15.4759 70.9632L21.969 69.7576C22.6081 69.6414 23.1601 69.2346 23.4797 68.6681L29.0141 58.6016L28.9705 58.558L27.852 59.0083Z" fill="#95575A"/>
<path d="M27.5 28L34.5 34L44 22" stroke="#95575A" stroke-width="4" stroke-linecap="round" stroke-linejoin="round"/>
</g>

</symbol><symbol id="icon-setup" viewBox="0 0 61 61">
<path d="M33.7494 29.2409C34.4521 28.8815 35.235 28.6915 36.0472 28.6915C37.3932 28.6915 38.6586 29.2141 39.6126 30.163L41.6661 28.1097C46.7479 29.891 52.6254 28.7506 56.688 24.6883C60.1062 21.2701 61.4543 16.567 60.7347 12.1339C60.6554 11.6457 60.3097 11.243 59.8392 11.0911C59.3687 10.939 58.8522 11.0626 58.5026 11.4124L55.4535 14.4615C52.9705 16.9445 48.9444 16.9445 46.4613 14.4615C43.9781 11.9784 43.9781 7.95232 46.4613 5.46927L49.5104 2.4202C49.8602 2.07038 49.9849 1.55388 49.8325 1.08316C49.6804 0.612231 49.2771 0.26741 48.7887 0.188124C44.3558 -0.531484 39.6525 0.816585 36.2345 4.23483C32.1116 8.35769 31.002 14.3493 32.8982 19.4821L28.4445 23.9358L33.7494 29.2409Z" fill="#95575A"/>
<path d="M25.6335 37.3114L20.3509 32.0288L1.87894 50.5006C-0.522949 52.9024 -0.522949 56.7966 1.87894 59.1985C4.28082 61.6004 8.17499 61.6004 10.5769 59.1985L26.5009 43.2747C24.8947 41.6601 24.6053 39.2224 25.6335 37.3114Z" fill="#95575A"/>
<path d="M37.4153 32.3797C37.0376 32.002 36.5423 31.813 36.0472 31.813C35.5521 31.813 35.0569 32.002 34.6792 32.3797L33.5765 33.4824L13.9335 13.8395L14.8517 12.9213C15.6882 12.085 15.5844 10.6976 14.6309 9.99545L6.61653 4.09313C5.84635 3.52606 4.77756 3.60659 4.10123 4.28292L0.698389 7.68597C0.0220658 8.36229 -0.0584687 9.4313 0.508602 10.2013L6.41072 18.2156C7.11285 19.1689 8.49942 19.2738 9.3366 18.4364L10.2547 17.518L29.8977 37.161L28.7173 38.3413C27.9617 39.0969 27.9617 40.3218 28.7173 41.0774L46.8384 59.1985C49.2403 61.6004 53.1345 61.6004 55.5364 59.1985C57.9382 56.7966 57.9382 52.9025 55.5364 50.5006L37.4153 32.3797Z" fill="#95575A"/>
</symbol><symbol id="icon-stars" viewBox="0 0 102 18">
<path d="M72 0L75.2269 4.5585L80.5595 6.21885L77.2213 10.6965L77.2901 16.2812L72 14.49L66.7099 16.2812L66.7787 10.6965L63.4405 6.21885L68.7731 4.5585L72 0Z" fill="#FBD2A4"/>
<path d="M51 0L54.2269 4.5585L59.5595 6.21885L56.2213 10.6965L56.2901 16.2812L51 14.49L45.7099 16.2812L45.7787 10.6965L42.4405 6.21885L47.7731 4.5585L51 0Z" fill="#FBD2A4"/>
<path d="M30 0L33.2269 4.5585L38.5595 6.21885L35.2213 10.6965L35.2901 16.2812L30 14.49L24.7099 16.2812L24.7787 10.6965L21.4405 6.21885L26.7731 4.5585L30 0Z" fill="#FBD2A4"/>
<path d="M9 0L12.2269 4.5585L17.5595 6.21885L14.2213 10.6965L14.2901 16.2812L9 14.49L3.70993 16.2812L3.7787 10.6965L0.440492 6.21885L5.77306 4.5585L9 0Z" fill="#FBD2A4"/>
<path d="M93 0L96.2269 4.5585L101.56 6.21885L98.2213 10.6965L98.2901 16.2812L93 14.49L87.7099 16.2812L87.7787 10.6965L84.4405 6.21885L89.7731 4.5585L93 0Z" fill="#DEDBD9"/>
</symbol></svg>