<svg width="64" height="57" viewBox="0 0 64 57" fill="none" xmlns="http://www.w3.org/2000/svg">
<path d="M55.9436 40.9704L64 33.0002L55.9436 25.0296L57.2416 23.7454C59.4875 21.5235 59.4875 17.9083 57.2421 15.6864C56.154 14.6104 54.7073 14.0176 53.1687 14.0176C51.6306 14.0176 50.1839 14.6104 49.0963 15.6864L47.7983 16.9706L39.7419 9L37.3646 11.3524V15.0702C41.5699 16.0617 44.7068 19.8102 44.7068 24.2698C44.7068 28.7298 41.5699 32.4784 37.3646 33.4694V44.9974H30.3904L29 46.373L39.7419 57L47.7983 49.0294L48.917 50.1367C51.1629 52.3587 54.817 52.3587 57.0628 50.1367C59.3087 47.9148 59.3087 44.2996 57.0628 42.0777L55.9436 40.9704Z" fill="#95575A"/>
<path d="M33.7722 41V29.8519H35.3296C38.4565 29.8519 41 27.3238 41 24.2158C41 21.1082 38.4565 18.5801 35.3296 18.5801H33.7722V7.43205H22.5563V5.63614C22.5563 2.5281 20.0128 0 16.8858 0C13.7594 0 11.2159 2.5281 11.2159 5.63614V7.43205H0V18.5801H1.55789C4.3012 18.5801 6.59524 20.5263 7.11648 23.1028C7.34258 23.4169 7.47727 23.8006 7.47727 24.2158C7.47727 24.6309 7.34258 25.0147 7.11648 25.3293C6.59524 27.9052 4.3012 29.8519 1.55789 29.8519H0V41H11.2159V39.2036C11.2159 36.096 13.7594 33.568 16.8858 33.568C20.0128 33.568 22.5563 36.096 22.5563 39.2036V41H33.7722Z" fill="#95575A"/>
</svg>
