<svg width="199" height="25" viewBox="0 0 199 25" fill="none" xmlns="http://www.w3.org/2000/svg">
<path d="M198.518 17.646H198.211C197.381 20.5087 195.542 22.2661 192.863 22.2932H189.047V14.6216H192.694C194.157 14.6644 195.072 15.7426 195.072 17.1767V17.4032H195.399V10.5568H195.072V10.7667C195.072 12.217 194.142 13.2952 192.651 13.3222H189.047V5.48359H193.613C195.447 5.51062 196.493 6.68027 196.493 8.54582V8.84218H196.826V3.68293C196.324 3.88786 194.723 4.17339 193.528 4.17879H182.372V4.50265H182.752C183.693 4.50265 184.454 5.22508 184.47 6.19521V21.5762C184.449 22.5355 183.688 23.2633 182.752 23.2633H182.372V23.5867H197.212H197.286L198.518 17.646ZM172.51 10.1524C171.321 9.40291 170.364 8.78321 170.454 7.58063C170.533 6.10922 171.891 5.06341 173.926 5.06341C176.447 5.06341 177.869 6.34608 177.869 8.30844H178.138L178.582 4.06577H176.86C175.543 3.89868 173.799 3.77481 172.737 3.77481C169.508 3.77481 167.288 5.5863 167.019 8.66967C166.781 10.8856 167.796 12.6539 169.825 13.9636L174.338 16.8749C175.961 17.9261 176.706 18.6702 176.706 19.7863C176.706 21.3712 175.512 22.7026 173.039 22.7242C169.651 22.735 167.616 20.2876 167.796 17.36H167.547C166.786 18.5837 166.348 21.0533 166.839 22.2878C167.748 23.2903 169.952 24.0128 172.684 24.0128C177.092 24.0128 179.941 21.8076 180.136 18.1527C180.279 15.8453 179.143 14.3086 177.525 13.2952L172.51 10.1524ZM158.7 4.18419V4.50807H159.134C159.921 4.50807 160.55 5.05259 160.582 5.86103V16.7457C160.555 20.4925 158.595 22.7242 155.281 22.7242C152.073 22.7242 150.17 20.3574 150.17 16.3899V5.86643C150.175 5.05799 150.809 4.50807 151.597 4.50807H152.051V4.18419H143.717V4.50807H144.151C144.938 4.50807 145.593 5.05799 145.598 5.86643V16.5948C145.598 21.2204 148.595 24.0128 154.689 24.0128C159.768 24.0128 162.674 21.1933 162.674 16.5354V5.84481C162.69 5.04718 163.34 4.50807 164.123 4.50807H164.556V4.18419H158.7ZM130.652 22.735C126.81 22.735 124.3 19.3548 124.3 13.8992C124.3 8.42198 126.81 5.04178 130.652 5.04178C134.516 5.04178 137.005 8.42198 137.005 13.8992C137.005 19.3548 134.516 22.735 130.652 22.735ZM130.652 3.77481C123.946 3.77481 119.443 7.64008 119.443 13.8992C119.443 20.1367 123.946 24.0128 130.652 24.0128C137.385 24.0128 141.883 20.1367 141.883 13.8992C141.883 7.64008 137.385 3.77481 130.652 3.77481ZM117.572 23.5921L117.567 23.2687H117.165C116.055 23.2687 115.157 22.363 115.136 21.2361V3.30548C115.157 2.17908 116.055 1.26793 117.165 1.26793H117.567L117.572 0.949951H107.942L107.948 1.26793H108.344C109.444 1.26793 110.337 2.1953 110.379 3.30548V11.6405H100.094V3.30548C100.126 2.18989 101.025 1.27333 102.129 1.27333H102.525L102.531 0.949951H92.9016L92.9069 1.27333H93.3082C94.413 1.27333 95.3115 2.18448 95.338 3.30548V21.2361C95.3168 22.363 94.4183 23.2687 93.3082 23.2687H92.9069L92.9016 23.5921H102.531L102.525 23.2687H102.129C101.019 23.2687 100.115 22.363 100.094 21.2361V13.0043H110.379V21.2577C110.342 22.3738 109.449 23.2687 108.344 23.2687H107.948L107.942 23.5921H117.572Z" fill="#562F2F"/>
<path fill-rule="evenodd" clip-rule="evenodd" d="M84.7938 19.0708C86.2459 20.3638 88.3701 22.2465 90.1065 22.7763L90.4341 22.8761L90.4876 24.0433L90.0236 24.0821C86.9339 24.3391 84.0345 24.5082 81.2223 22.9562C79.3385 24.0423 77.1339 24.4069 74.9909 24.4069C70.1562 24.4069 63.4579 22.7075 63.4579 16.6002C63.4579 13.5985 65.3229 11.5348 67.8865 10.5013C67.1619 9.19456 66.7239 7.79786 66.7239 6.26551C66.7239 1.73581 71.0677 -0.00637136 74.8912 1.75012e-05C77.0505 0.00345766 80.2164 0.611366 81.5446 2.50198L81.6742 2.68627L80.399 7.92661H79.248L79.2446 7.43861C79.2277 5.10963 78.4622 2.34718 75.7203 2.34718C73.8298 2.34718 72.5921 3.74682 72.5921 5.6453C72.5921 8.48343 75.8899 11.1781 77.792 12.8716C79.2118 14.1356 80.6225 15.4208 82.0645 16.6607C82.3507 15.2473 82.2972 13.6584 81.6964 12.3752C81.3905 11.7226 80.9506 11.1731 80.186 11.183H79.234V9.87669H87.6123V11.183H86.6708C85.9641 11.1751 86.0291 11.8199 86.032 12.3816C86.0917 14.6457 85.7858 17.0204 84.7938 19.0708ZM69.8835 13.2353C69.5067 14.0747 69.3843 14.9844 69.4311 15.9284C69.6214 19.7986 72.5372 22.0603 76.1853 22.0603C77.1787 22.0603 78.1196 21.8298 78.9651 21.3413C77.1088 19.8571 75.2906 18.2884 73.508 16.7187C72.2635 15.6232 70.9959 14.4831 69.8835 13.2353Z" fill="#FDD5A6"/>
<path d="M62.4795 3.65578C62.0729 3.86072 60.3341 4.15215 59.1446 4.15215H47.4439C46.2597 4.15215 44.6375 3.86072 44.1143 3.65578V8.78849H44.4366V8.48626C44.4366 6.64282 45.4883 5.47267 47.3379 5.44564H51.0058V21.5544C50.974 22.53 50.2079 23.2686 49.2511 23.2686H48.9182V23.592H57.6809V23.2686H57.3427C56.3965 23.2686 55.6145 22.5408 55.5933 21.5815V5.44564H59.2559C61.1108 5.47267 62.1731 6.64282 62.1572 8.48626V8.78849H62.4848L62.4795 3.65578ZM24.8925 4.18409V4.50797H25.2943C26.2034 4.50797 26.9429 5.21958 26.9588 6.18971V21.5815C26.9377 22.5462 26.1822 23.2686 25.2731 23.2686H24.8925V23.592H33.6234V23.2686H33.2799C32.4343 23.2686 31.557 22.6273 31.557 21.5544V5.52133C31.9164 5.53214 32.5504 5.49431 33.3695 5.53215C34.4689 5.58621 36.5989 6.04424 36.7362 9.23572C36.7627 9.87166 36.6885 10.3356 36.6307 10.5887C36.1022 13.3059 34.6486 13.8072 33.3382 13.8234H32.524V14.0986C33.1108 14.1468 33.8927 14.7238 34.4265 16.0772C34.7175 17.1658 35.8483 19.3385 36.5512 20.4924C38.0573 22.9128 39.6799 23.592 43.1257 23.592H45.7842V23.2686C44.4737 23.2632 43.7602 22.7836 42.5234 21.064C41.4081 19.5542 40.4889 17.9531 40.2191 17.4626C39.6269 16.465 38.4167 15.1012 37.1592 14.7076C40.2826 14.2495 41.5613 11.7588 41.5613 9.48392C41.5613 5.45107 38.1527 4.18409 34.638 4.18409H24.8925ZM7.48889 15.8831L10.739 7.93633L13.8364 15.8831H7.48889ZM12.129 0.302612H11.8438C11.7696 1.24079 10.5121 4.04404 10.2847 4.53991L2.95431 21.4463C2.27788 22.7295 1.18375 23.2686 0.285214 23.2686H0V23.592H6.79655V23.274H6.52146C5.70242 23.274 4.78846 22.5354 5.30638 21.2419L6.92857 17.2415H14.3698L15.9341 21.2419C16.4154 22.5354 15.5275 23.2686 14.7085 23.2686H14.428V23.592H24.533V23.2686H24.2637C23.3334 23.2686 22.2446 22.7187 21.5575 21.3927L12.129 0.302612Z" fill="#562F2F"/>
</svg>
