<svg width="15" height="14" viewBox="0 0 15 14" fill="none" xmlns="http://www.w3.org/2000/svg">
<path d="M14.9709 5.79333C14.9189 5.68681 14.8078 5.61867 14.6849 5.61867H13.7507C13.1568 2.5188 10.3265 0.162354 6.9341 0.162354C3.11087 0.162354 0 3.15418 0 6.83112C0 10.5081 3.11055 13.4996 6.9341 13.4996C9.40154 13.4996 11.7027 12.2224 12.9394 10.167C13.1137 9.87697 13.0109 9.50648 12.709 9.33858C12.4077 9.17068 12.0222 9.26952 11.8482 9.55958C10.8358 11.242 8.9528 12.2874 6.9341 12.2874C3.806 12.2874 1.26069 9.83983 1.26069 6.83173C1.26069 3.82302 3.806 1.37541 6.9341 1.37541C9.62846 1.37541 11.8859 3.19286 12.461 5.61898H11.5342C11.4113 5.61898 11.3005 5.68712 11.2482 5.79363C11.1962 5.90014 11.2131 6.02569 11.2916 6.11624L12.8676 7.93491C12.9276 8.00397 13.016 8.04387 13.1099 8.04387C13.2034 8.04387 13.2921 8.00366 13.3518 7.93491L14.9278 6.11624C15.0063 6.02538 15.0229 5.89984 14.9709 5.79333Z" fill="#A21418"/>
<path d="M6.93408 1.67804C6.58587 1.67804 6.30373 1.94938 6.30373 2.28426V5.96274C6.01872 6.15488 5.83105 6.47166 5.83105 6.8314C5.83105 7.41644 6.32607 7.89252 6.9344 7.89252C7.101 7.89252 7.25802 7.85415 7.39973 7.79L9.59237 9.00705C9.69195 9.06261 9.79983 9.0887 9.90706 9.0887C10.1247 9.0887 10.3367 8.98004 10.4535 8.78543C10.6274 8.49598 10.5243 8.12488 10.2224 7.95759L8.02752 6.7387C7.99816 6.41825 7.82486 6.13831 7.56506 5.96335V2.28426C7.56442 1.94969 7.28196 1.67804 6.93408 1.67804ZM6.93408 7.28568C6.67332 7.28568 6.4614 7.08156 6.4614 6.8314C6.4614 6.58093 6.67364 6.37681 6.93408 6.37681C7.19451 6.37681 7.40675 6.58093 7.40675 6.8314C7.40675 7.08156 7.19451 7.28568 6.93408 7.28568Z" fill="#A21418"/>
</svg>
