<svg width="25" height="25" viewBox="0 0 22 23" xmlns="http://www.w3.org/2000/svg">
<path fill-rule="evenodd" clip-rule="evenodd" d="M14.7502 5.52332H7.21604C6.01363 5.52332 5.03516 6.50172 5.03516 7.7042V15.2383C5.03516 16.441 6.01363 17.4194 7.21604 17.4194H14.7502C15.9528 17.4194 16.9313 16.441 16.9313 15.2383V7.7042C16.9313 6.50179 15.9528 5.52332 14.7502 5.52332ZM10.983 15.3874C8.82382 15.3874 7.06693 13.6305 7.06693 11.4711C7.06693 9.31197 8.82382 7.55509 10.983 7.55509C13.1424 7.55509 14.8993 9.31197 14.8993 11.4711C14.8993 13.6305 13.1424 15.3874 10.983 15.3874ZM15.0253 8.36488C14.5141 8.36488 14.0984 7.94921 14.0984 7.43831C14.0984 6.92735 14.5141 6.51168 15.0253 6.51168C15.5362 6.51168 15.9518 6.92735 15.9518 7.43831C15.9518 7.94927 15.5362 8.36488 15.0253 8.36488Z"/>
<path fill-rule="evenodd" clip-rule="evenodd" d="M10.9832 9.21008C9.73672 9.21008 8.72168 10.2246 8.72168 11.4711C8.72168 12.7181 9.73672 13.7329 10.9832 13.7329C12.2301 13.7329 13.2445 12.7181 13.2445 11.4711C13.2445 10.2246 12.2301 9.21008 10.9832 9.21008Z"/>
<path fill-rule="evenodd" clip-rule="evenodd" d="M0 0.488159V22.4545H21.9664V0.488159H0ZM18.586 15.2384C18.586 17.3537 16.8656 19.0741 14.7503 19.0741H7.21614C5.10103 19.0741 3.38041 17.3537 3.38041 15.2384V7.70429C3.38041 5.58919 5.10103 3.86857 7.21614 3.86857H14.7503C16.8656 3.86857 18.586 5.58919 18.586 7.70429V15.2384Z"/>
</svg>
