<svg width="102" height="18" viewBox="0 0 102 18" fill="none" xmlns="http://www.w3.org/2000/svg">
<path d="M72 0L75.2269 4.5585L80.5595 6.21885L77.2213 10.6965L77.2901 16.2812L72 14.49L66.7099 16.2812L66.7787 10.6965L63.4405 6.21885L68.7731 4.5585L72 0Z" fill="#FBD2A4"/>
<path d="M51 0L54.2269 4.5585L59.5595 6.21885L56.2213 10.6965L56.2901 16.2812L51 14.49L45.7099 16.2812L45.7787 10.6965L42.4405 6.21885L47.7731 4.5585L51 0Z" fill="#FBD2A4"/>
<path d="M30 0L33.2269 4.5585L38.5595 6.21885L35.2213 10.6965L35.2901 16.2812L30 14.49L24.7099 16.2812L24.7787 10.6965L21.4405 6.21885L26.7731 4.5585L30 0Z" fill="#FBD2A4"/>
<path d="M9 0L12.2269 4.5585L17.5595 6.21885L14.2213 10.6965L14.2901 16.2812L9 14.49L3.70993 16.2812L3.7787 10.6965L0.440492 6.21885L5.77306 4.5585L9 0Z" fill="#FBD2A4"/>
<path d="M93 0L96.2269 4.5585L101.56 6.21885L98.2213 10.6965L98.2901 16.2812L93 14.49L87.7099 16.2812L87.7787 10.6965L84.4405 6.21885L89.7731 4.5585L93 0Z" fill="#DEDBD9"/>
</svg>
