<svg width="71" height="71" viewBox="0 0 71 71" fill="none" xmlns="http://www.w3.org/2000/svg">
<g clip-path="url(#clip0)">
<path d="M63.1211 32.1353L62.2495 30.9441C61.2908 29.6368 61.2763 27.8646 62.2205 26.5427L63.0775 25.3371C64.3849 23.4923 63.7748 20.9067 61.7847 19.8317L60.4774 19.1345C59.0538 18.3646 58.2694 16.7813 58.5454 15.1834L58.7924 13.7163C59.17 11.4793 57.4995 9.4166 55.2335 9.32944L53.7518 9.27134C52.1395 9.19871 50.745 8.10926 50.2947 6.55498L49.8879 5.13143C49.2633 2.95253 46.8665 1.8195 44.7748 2.72012L43.4093 3.30116C41.9277 3.9403 40.1991 3.56262 39.1096 2.35697L38.1219 1.25299C36.6112 -0.432025 33.9529 -0.417499 32.4713 1.29657L31.498 2.41507C30.4376 3.63525 28.709 4.04198 27.2129 3.43189L25.8474 2.86538C23.7557 1.99382 21.3734 3.17042 20.7778 5.34932L20.3856 6.77287C19.9644 8.32715 18.5844 9.44565 16.972 9.54733L15.4904 9.63449C13.2243 9.76522 11.5829 11.857 12.0041 14.0794L12.2656 15.532C12.5561 17.1299 11.8008 18.7278 10.3918 19.5122L9.09894 20.2385C7.10888 21.3424 6.54237 23.9281 7.87876 25.7583L8.75032 26.9495C9.70903 28.2568 9.72356 30.029 8.77937 31.3508L7.92233 32.5565C6.615 34.4013 7.22509 36.9869 9.21515 38.0619L10.5225 38.7591C11.946 39.529 12.7304 41.1123 12.4544 42.7102L12.2075 44.1773C11.8298 46.4143 13.5003 48.477 15.7664 48.5641L17.248 48.6223C18.8604 48.6949 20.2549 49.7843 20.7052 51.3386L21.1119 52.7622C21.7366 54.9411 24.1333 56.0741 26.2251 55.1735L27.5905 54.5924C29.0722 53.9533 30.8008 54.331 31.8902 55.5366L32.878 56.6406C34.3887 58.3256 37.0469 58.3111 38.5286 56.597L39.5018 55.4785C40.5622 54.2583 42.2908 53.8516 43.787 54.4617L45.1524 55.0282C47.2442 55.8998 49.6265 54.7232 50.222 52.5443L50.6142 51.1207C51.0355 49.5664 52.4154 48.4479 54.0278 48.3463L55.5095 48.2591C57.7755 48.1284 59.417 46.0366 58.9957 43.8142L58.7342 42.3615C58.4437 40.7637 59.1991 39.1658 60.6081 38.3814L61.9009 37.6551C63.891 36.5657 64.4575 33.9655 63.1211 32.1353ZM35.4781 47.8233C25.063 47.8233 16.5944 39.3547 16.5944 28.9395C16.5944 18.5244 25.063 10.0557 35.4781 10.0557C45.8933 10.0557 54.3619 18.5244 54.3619 28.9395C54.3619 39.3547 45.8933 47.8233 35.4781 47.8233Z" fill="#95575A"/>
<path d="M55.2045 52.4571L54.5508 52.5007L54.2312 53.6628C53.287 57.1054 50.1349 59.5022 46.576 59.5022C45.5301 59.5022 44.5133 59.2989 43.5546 58.9067L42.4506 58.4418L42.102 58.8486L47.4911 68.6536C47.8107 69.2201 48.3627 69.6269 49.0018 69.7431L55.495 70.9487C56.5118 71.1376 57.5286 70.5856 57.9208 69.6123L60.3757 63.4824C60.6227 62.8723 60.5791 62.1895 60.2595 61.623L55.2045 52.4571Z" fill="#95575A"/>
<path d="M27.852 59.0083C26.8497 59.4441 25.8039 59.662 24.7144 59.662C21.1991 59.662 18.0615 57.3088 17.0883 53.9388L16.7542 52.7912L15.5921 52.7477L10.7114 61.6375C10.3918 62.2041 10.3482 62.8868 10.5951 63.4969L13.05 69.6268C13.4422 70.6001 14.4591 71.1521 15.4759 70.9632L21.969 69.7576C22.6081 69.6414 23.1601 69.2346 23.4797 68.6681L29.0141 58.6016L28.9705 58.558L27.852 59.0083Z" fill="#95575A"/>
<path d="M27.5 28L34.5 34L44 22" stroke="#95575A" stroke-width="4" stroke-linecap="round" stroke-linejoin="round"/>
</g>
<defs>
<clipPath id="clip0">
<rect width="71" height="71" fill="white"/>
</clipPath>
</defs>
</svg>
