<svg width="25" height="25" viewBox="0 0 23 22" xmlns="http://www.w3.org/2000/svg">
<path fill-rule="evenodd" clip-rule="evenodd" d="M0.710449 0H22.3333V21.6229H0.710449V0ZM6.68508 11.4221C6.26025 12.2572 6.7426 12.6564 7.84315 13.3384C8.77872 13.9164 10.0712 14.1278 10.9015 14.2123L7.62969 17.3594C6.67746 18.2722 8.21046 19.7365 9.16201 18.8432L11.738 16.3587L11.7858 16.4046C12.7547 17.3367 13.68 18.2269 14.3141 18.8467C15.2663 19.7435 16.7986 18.2916 15.8568 17.3629C15.8257 17.3333 15.1477 16.683 14.415 15.9804L14.4089 15.9745L14.4036 15.9694C13.4724 15.0763 12.4581 14.1036 12.5745 14.2158C13.4152 14.1312 14.6883 13.9074 15.6128 13.3419L15.6121 13.3412C16.7127 12.6557 17.1951 12.2572 16.7765 11.4221C16.5235 10.9481 15.8415 10.5517 14.9337 11.2371C14.9337 11.2371 13.7077 12.1762 11.7304 12.1762C9.75248 12.1762 8.52718 11.2371 8.52718 11.2371C7.61999 10.5482 6.93527 10.9481 6.68508 11.4221ZM10.9015 14.2123L10.9015 14.2123C10.8953 14.2182 10.7828 14.3264 10.9015 14.2123ZM16.1076 6.70728C16.1076 9.0262 14.1394 10.9099 11.729 10.9099C9.31788 10.9099 7.34964 9.0262 7.34964 6.70728C7.34964 4.37866 9.31788 2.49498 11.729 2.49498C14.1394 2.49498 16.1076 4.37866 16.1076 6.70728ZM13.8795 6.70728C13.8795 5.55822 12.9134 4.62885 11.729 4.62885C10.5439 4.62885 9.57777 5.55753 9.57846 6.70728C9.57846 7.84664 10.5446 8.77601 11.729 8.77601C12.9134 8.77601 13.8795 7.84664 13.8795 6.70728Z"/>
</svg>
